<?xml version="1.0" encoding="utf-8"?>
<!-- Generator: Adobe Illustrator 28.1.0, SVG Export Plug-In . SVG Version: 6.00 Build 0)  -->
<svg version="1.1" id="Layer_1" xmlns="http://www.w3.org/2000/svg" xmlns:xlink="http://www.w3.org/1999/xlink" x="0px" y="0px"
	 viewBox="0 0 28 31.3" style="enable-background:new 0 0 28 31.3;" xml:space="preserve">
<style type="text/css">
	.st0{fill:#579C27;}
</style>
<g>
	<path class="st0" d="M27.7,0c0.4,2.9,0.6,7.2-0.9,12.1c-0.6,1.9-3.3,9.8-10.9,14.1c-1.1,0.6-4.1,2.2-8.3,2.7
		c-1.1,0.1-2.1,0.1-3,0.1l0,0l0,0c-0.6-0.2-0.9-0.2-1.1-0.1l0,0c-0.5,0.2-0.4,0.9-1.1,1.7c-0.3,0.4-0.6,0.7-1,0.8
		c-0.8,0.1-1.7-1-1.4-1.7c0-0.1,0.1-0.2,0.2-0.3c0.3-0.1,1.3-0.7,1.6-1.7C2,27.3,2,27,2,26.8c0-0.6,0-1.3,0-2.1c0-2.5,0-3,0.1-3.8
		c0,0,0.2-2.6,1.3-5.5C4.7,12,8,7.3,13.2,4.8c2.9-1.4,3.7-0.8,10.3-3.2C25.3,1,26.8,0.4,27.7,0z"/>
</g>
</svg>
