<?xml version="1.0" encoding="utf-8"?>
<!-- Generator: Adobe Illustrator 28.1.0, SVG Export Plug-In . SVG Version: 6.00 Build 0)  -->
<svg version="1.1" id="Layer_1" xmlns="http://www.w3.org/2000/svg" xmlns:xlink="http://www.w3.org/1999/xlink" x="0px" y="0px"
	 viewBox="0 0 18.6 40.4" style="enable-background:new 0 0 18.6 40.4;" xml:space="preserve">
<style type="text/css">
	.st0{fill:#579B44;}
	.st1{fill:#E8E3CE;}
</style>
<g>
	<path class="st0" d="M7.8,0c2.3,1.7,5.5,4.6,7.7,9c0.9,1.7,4.5,9.1,2.2,17.3c-0.3,1.2-1.3,4.4-3.9,7.6c-0.7,0.8-1.4,1.5-2,2.1h0v0
		c-0.5,0.2-0.7,0.5-0.8,0.7v0c-0.2,0.5,0.3,0.9,0.4,1.9c0.1,0.5,0.1,0.9-0.2,1.2c-0.5,0.6-1.9,0.4-2.2-0.2C9,39.6,9,39.5,9,39.4
		C9.1,39.1,9.4,38.1,9,37c-0.1-0.2-0.3-0.4-0.4-0.6C8.1,36,7.7,35.5,7.1,35c-1.7-1.8-2.1-2.1-2.6-2.7c0,0-1.7-1.9-2.9-4.7
		C0.2,24.3-0.9,18.8,1,13.4c1-2.9,2-3.1,5-9.4C6.8,2.4,7.4,1,7.8,0z"/>
</g>
<g>
	<path class="st1" d="M13.4,13.2C12.2,11.6,9.9,11,8,11.5c-0.9,0.2-1.7,0.7-2.3,1.4c-0.7,0.8-0.9,1.9-0.9,3c0,1.3,0.4,2.6,0.9,3.8
		C6.2,20.9,7,22,7.8,23c0.3,0.4,0.6,0.7,0.9,1.1c0.2,0.2,0.4,0.4,0.5,0.6c0.1,0.1,0.1,0.1,0.2,0.2c0,0,0,0,0,0c0,0,0,0,0,0
		c0,0,0,0,0,0c0,0,0,0,0,0c0,0,0,0,0,0c0,0,0,0,0-0.1v-0.1c0.1,0.3,0.5,0.6,0.7,0.3c0.7-0.9,1.2-1.9,1.8-2.9c0.6-1,1.2-2,1.6-3.1
		C14.3,17.4,14.6,14.9,13.4,13.2z M12.9,18.5c-0.4,1.1-1,2.1-1.6,3.1c-0.3,0.5-0.6,1-0.8,1.4c-0.2,0.3-0.4,0.7-0.6,1
		c-0.1-0.2-0.3-0.3-0.4-0.4c-0.4-0.4-0.7-0.8-1.1-1.2c-0.6-0.8-1.2-1.7-1.7-2.6c-0.5-0.9-0.8-1.9-1-2.9c-0.2-1-0.2-2,0.3-2.9
		c0.4-0.7,1-1.2,1.7-1.5c1.6-0.6,3.6-0.3,4.8,1C13.7,14.8,13.4,16.9,12.9,18.5z"/>
</g>
<g>
	<path class="st1" d="M10.6,15.6c-0.5-0.6-1.5-0.7-2.1-0.2c0,0,0,0,0,0c-0.5,0.4-0.7,1-0.6,1.6c0,0.3,0.1,0.6,0.3,0.8
		c0.2,0.3,0.6,0.5,0.9,0.6c0.4,0.1,0.8,0.1,1.2-0.1c0.4-0.1,0.6-0.4,0.7-0.8C11.2,16.9,11.1,16.1,10.6,15.6z M10.6,17.1
		c0,0.2-0.1,0.5-0.3,0.7C10.1,18,9.7,18,9.4,18c-0.3,0-0.6-0.1-0.8-0.4c-0.1-0.1-0.2-0.3-0.2-0.5c-0.1-0.5,0-1.1,0.4-1.4
		c0.4-0.3,1-0.3,1.4,0C10.5,16,10.7,16.7,10.6,17.1z"/>
</g>
<g>
	<path class="st1" d="M6.3,23.7c-1.1,0.3-2,1.4-2,2.6c0,1.4,1.7,1.9,2.8,2.1c1.5,0.2,2.9,0.2,4.4,0c1.1-0.2,2.5-0.5,3-1.6
		c0.7-1.5-1.4-2.5-2.6-2.6c-0.6,0-0.6,0.8,0,0.9c0.5,0,0.9,0.2,1.3,0.5c0.3,0.2,0.7,0.5,0.5,0.9c-0.4,0.8-1.5,0.9-2.3,1.1
		c-1.1,0.2-2.2,0.2-3.3,0.1c-0.5,0-1.1-0.1-1.6-0.3c-0.4-0.1-0.9-0.3-1.2-0.7c-0.3-0.4,0-1,0.2-1.3c0.2-0.4,0.6-0.6,1-0.8
		C7.1,24.4,6.9,23.5,6.3,23.7L6.3,23.7z"/>
</g>
</svg>
