<?xml version="1.0" encoding="utf-8"?>
<!-- Generator: Adobe Illustrator 28.1.0, SVG Export Plug-In . SVG Version: 6.00 Build 0)  -->
<svg version="1.1" id="Laag_1" xmlns="http://www.w3.org/2000/svg" xmlns:xlink="http://www.w3.org/1999/xlink" x="0px" y="0px"
	 viewBox="0 0 390.8 532.2" style="enable-background:new 0 0 390.8 532.2;" xml:space="preserve">
<style type="text/css">
	.st0{fill:#D9EAEA;}
	.st1{fill:#95C11F;}
	.st2{opacity:0.8;fill:#E0F1F2;}
	.st3{fill:#F5FAFA;}
</style>
<path class="st0" d="M327,532.2H63.8c-4.1,0-7.5-3.4-7.5-7.5v-4.5c0-4.1,3.4-7.5,7.5-7.5H327c4.1,0,7.5,3.4,7.5,7.5v4.5
	C334.5,528.8,331.1,532.2,327,532.2z"/>
<path class="st0" d="M344.1,47.8H46.7c-4.1,0-7.5-3.4-7.5-7.5v-4.5c0-4.1,3.4-7.5,7.5-7.5h297.4c4.1,0,7.5,3.4,7.5,7.5v4.5
	C351.6,44.4,348.2,47.8,344.1,47.8z"/>
<path class="st1" d="M390.8,34.6H0V17.4C0,11.7,4.7,7,10.5,7h369.9c5.8,0,10.5,4.7,10.5,10.5V34.6z"/>
<path class="st2" d="M348.5,519.7H42.4C19,519.7,0,500.8,0,477.4V88.4C0,65,19,46.1,42.4,46.1h306.1c23.4,0,42.4,19,42.4,42.4v388.9
	C390.8,500.8,371.8,519.7,348.5,519.7z"/>
<path class="st3" d="M20.6,189.8V97.2c0,0,2.7-30.2,22.9-33.9h61.4c0,0,11.9,14.7,0,17.4c-11.9,2.7-56.3,42.2-65.7,76.1
	S37.1,198,20.6,189.8z"/>
<path class="st3" d="M369.2,381.1v92.6c0,0-2.7,30.2-22.9,33.9h-61.4c0,0-11.9-14.7,0-17.4c11.9-2.7,56.3-42.2,65.7-76.1
	S352.7,372.8,369.2,381.1z"/>
</svg>
