<?xml version="1.0" encoding="utf-8"?>
<!-- Generator: Adobe Illustrator 28.1.0, SVG Export Plug-In . SVG Version: 6.00 Build 0)  -->
<svg version="1.1" id="Laag_1" xmlns="http://www.w3.org/2000/svg" xmlns:xlink="http://www.w3.org/1999/xlink" x="0px" y="0px"
	 viewBox="0 0 390.8 742.2" style="enable-background:new 0 0 390.8 742.2;" xml:space="preserve">
<style type="text/css">
	.st0{fill:#D9EAEA;}
	.st1{fill:#95C11F;}
	.st2{opacity:0.8;fill:#E0F1F2;enable-background:new    ;}
	.st3{fill:#F5FAFA;}
</style>
<path class="st0" d="M327,742.2H63.8c-4.1,0-7.5-4.9-7.5-10.7V725c0-5.9,3.4-10.7,7.5-10.7H327c4.1,0,7.5,4.9,7.5,10.7v6.4
	C334.5,737.3,331.1,742.2,327,742.2z"/>
<path class="st0" d="M344.1,47.8H46.7c-4.1,0-7.5-3.4-7.5-7.5v-4.5c0-4.1,3.4-7.5,7.5-7.5h297.4c4.1,0,7.5,3.4,7.5,7.5v4.5
	C351.6,44.4,348.2,47.8,344.1,47.8z"/>
<path class="st1" d="M390.8,34.6H0V17.4C0,11.7,4.7,7,10.5,7h369.9c5.8,0,10.5,4.7,10.5,10.5v17.1H390.8z"/>
<path class="st2" d="M348.5,724.3H42.4C19,724.3,0,697.2,0,663.7v-557c0-33.5,19-60.6,42.4-60.6h306.1c23.4,0,42.4,27.2,42.4,60.7
	v556.9C390.8,697.2,371.8,724.3,348.5,724.3z"/>
<path class="st3" d="M20.6,189.8V97.2c0,0,2.7-30.2,22.9-33.9h61.4c0,0,11.9,14.7,0,17.4c-11.9,2.7-56.3,42.2-65.7,76.1
	S37.1,198,20.6,189.8z"/>
<path class="st3" d="M369.2,525.8v132.6c0,0-2.7,43.2-22.9,48.5h-61.4c0,0-11.9-21.1,0-24.9s56.3-60.4,65.7-109
	C360,524.5,352.7,513.9,369.2,525.8z"/>
</svg>
